<svg version="1.1" xmlns="http://www.w3.org/2000/svg" xmlns:xlink="http://www.w3.org/1999/xlink" role="img" width="741" height="108" viewbox="0 0 741 108"><title>Weidows-pro-j</title><desc>Generated by logo.svg, https://github.com/bubkoo/logo.svg</desc><path fill="#6af72e" d="M29.80 69.20L37.48 69.20L37.48 61.52L29.80 61.52L29.80 69.20M10.60 69.20L18.28 69.20L18.28 61.52L10.60 61.52L10.60 69.20M49 69.10L56.68 69.10L56.68 61.42L49 61.42L49 69.10M58.70 69.20L66.38 69.20L66.38 61.52L58.70 61.52L58.70 69.20M1 69.20L8.68 69.20L8.68 61.52L1 61.52L1 69.20M29.80 59.60L37.48 59.60L37.48 51.92L29.80 51.92L29.80 59.60M10.60 59.60L18.28 59.60L18.28 51.92L10.60 51.92L10.60 59.60M49 59.50L56.68 59.50L56.68 51.82L49 51.82L49 59.50M58.70 59.60L66.38 59.60L66.38 51.92L58.70 51.92L58.70 59.60M1 59.60L8.68 59.60L8.68 51.92L1 51.92L1 59.60M29.80 50L37.48 50L37.48 42.32L29.80 42.32L29.80 50M10.60 50L18.28 50L18.28 42.32L10.60 42.32L10.60 50M49 49.90L56.68 49.90L56.68 42.22L49 42.22L49 49.90M58.70 50L66.38 50L66.38 42.32L58.70 42.32L58.70 50M1 50L8.68 50L8.68 42.32L1 42.32L1 50M29.80 40.40L37.48 40.40L37.48 32.72L29.80 32.72L29.80 40.40M10.60 40.40L18.28 40.40L18.28 32.72L10.60 32.72L10.60 40.40M49 40.30L56.68 40.30L56.68 32.62L49 32.62L49 40.30M58.70 40.40L66.38 40.40L66.38 32.72L58.70 32.72L58.70 40.40M1 40.40L8.68 40.40L8.68 32.72L1 32.72L1 40.40M29.80 30.80L37.48 30.80L37.48 23.12L29.80 23.12L29.80 30.80M10.60 30.80L18.28 30.80L18.28 23.12L10.60 23.12L10.60 30.80M49 30.70L56.68 30.70L56.68 23.02L49 23.02L49 30.70M58.70 30.80L66.38 30.80L66.38 23.12L58.70 23.12L58.70 30.80M1 30.80L8.68 30.80L8.68 23.12L1 23.12L1 30.80M10.60 21.20L18.28 21.20L18.28 13.52L10.60 13.52L10.60 21.20M49 21.10L56.68 21.10L56.68 13.42L49 13.42L49 21.10M58.70 21.20L66.38 21.20L66.38 13.52L58.70 13.52L58.70 21.20M1 21.20L8.68 21.20L8.68 13.52L1 13.52L1 21.20M10.60 11.60L18.28 11.60L18.28 3.92L10.60 3.92L10.60 11.60M49 11.50L56.68 11.50L56.68 3.82L49 3.82L49 11.50M58.70 11.60L66.38 11.60L66.38 3.92L58.70 3.92L58.70 11.60M1 11.60L8.68 11.60L8.68 3.92L1 3.92L1 11.60M29.80 78.80L37.48 78.80L37.48 71.12L29.80 71.12L29.80 78.80M10.60 78.80L18.28 78.80L18.28 71.12L10.60 71.12L10.60 78.80M39.30 78.70L46.98 78.70L46.98 71.02L39.30 71.02L39.30 78.70M49 78.70L56.68 78.70L56.68 71.02L49 71.02L49 78.70M58.70 78.80L66.38 78.80L66.38 71.12L58.70 71.12L58.70 78.80M20.10 78.80L27.78 78.80L27.78 71.12L20.10 71.12L20.10 78.80M1 78.80L8.68 78.80L8.68 71.12L1 71.12L1 78.80Z"></path><path fill="#c6e03c" d="M87.40 69.20L95.08 69.20L95.08 61.52L87.40 61.52L87.40 69.20M77.80 69.20L85.48 69.20L85.48 61.52L77.80 61.52L77.80 69.20M87.40 59.60L95.08 59.60L95.08 51.92L87.40 51.92L87.40 59.60M77.80 59.60L85.48 59.60L85.48 51.92L77.80 51.92L77.80 59.60M106.60 50L114.28 50L114.28 42.32L106.60 42.32L106.60 50M87.40 50L95.08 50L95.08 42.32L87.40 42.32L87.40 50M116.10 49.90L123.78 49.90L123.78 42.22L116.10 42.22L116.10 49.90M77.80 50L85.48 50L85.48 42.32L77.80 42.32L77.80 50M96.90 50L104.58 50L104.58 42.32L96.90 42.32L96.90 50M106.60 40.40L114.28 40.40L114.28 32.72L106.60 32.72L106.60 40.40M87.40 40.40L95.08 40.40L95.08 32.72L87.40 32.72L87.40 40.40M116.10 40.30L123.78 40.30L123.78 32.62L116.10 32.62L116.10 40.30M77.80 40.40L85.48 40.40L85.48 32.72L77.80 32.72L77.80 40.40M106.60 30.80L114.28 30.80L114.28 23.12L106.60 23.12L106.60 30.80M87.40 30.80L95.08 30.80L95.08 23.12L87.40 23.12L87.40 30.80M116.10 30.70L123.78 30.70L123.78 23.02L116.10 23.02L116.10 30.70M77.80 30.80L85.48 30.80L85.48 23.12L77.80 23.12L77.80 30.80M96.90 30.80L104.58 30.80L104.58 23.12L96.90 23.12L96.90 30.80M106.60 78.80L114.28 78.80L114.28 71.12L106.60 71.12L106.60 78.80M87.40 78.80L95.08 78.80L95.08 71.12L87.40 71.12L87.40 78.80M116.10 78.70L123.78 78.70L123.78 71.02L116.10 71.02L116.10 78.70M77.80 78.80L85.48 78.80L85.48 71.12L77.80 71.12L77.80 78.80M96.90 78.80L104.58 78.80L104.58 71.12L96.90 71.12L96.90 78.80Z"></path><path fill="#fc428f" d="M145 69.20L152.68 69.20L152.68 61.52L145 61.52L145 69.20M135.40 69.20L143.08 69.20L143.08 61.52L135.40 61.52L135.40 69.20M145 59.60L152.68 59.60L152.68 51.92L145 51.92L145 59.60M135.40 59.60L143.08 59.60L143.08 51.92L135.40 51.92L135.40 59.60M145 50L152.68 50L152.68 42.32L145 42.32L145 50M135.40 50L143.08 50L143.08 42.32L135.40 42.32L135.40 50M145 40.40L152.68 40.40L152.68 32.72L145 32.72L145 40.40M135.40 40.40L143.08 40.40L143.08 32.72L135.40 32.72L135.40 40.40M145 30.80L152.68 30.80L152.68 23.12L145 23.12L145 30.80M135.40 30.80L143.08 30.80L143.08 23.12L135.40 23.12L135.40 30.80M145 11.60L152.68 11.60L152.68 3.92L145 3.92L145 11.60M135.40 11.60L143.08 11.60L143.08 3.92L135.40 3.92L135.40 11.60M145 78.80L152.68 78.80L152.68 71.12L145 71.12L145 78.80M135.40 78.80L143.08 78.80L143.08 71.12L135.40 71.12L135.40 78.80Z"></path><path fill="#cea2fd" d="M193.10 69.20L200.78 69.20L200.78 61.52L193.10 61.52L193.10 69.20M173.90 69.20L181.58 69.20L181.58 61.52L173.90 61.52L173.90 69.20M202.60 69.10L210.28 69.10L210.28 61.42L202.60 61.42L202.60 69.10M164.30 69.20L171.98 69.20L171.98 61.52L164.30 61.52L164.30 69.20M193.10 59.60L200.78 59.60L200.78 51.92L193.10 51.92L193.10 59.60M173.90 59.60L181.58 59.60L181.58 51.92L173.90 51.92L173.90 59.60M202.60 59.50L210.28 59.50L210.28 51.82L202.60 51.82L202.60 59.50M164.30 59.60L171.98 59.60L171.98 51.92L164.30 51.92L164.30 59.60M193.10 50L200.78 50L200.78 42.32L193.10 42.32L193.10 50M173.90 50L181.58 50L181.58 42.32L173.90 42.32L173.90 50M202.60 49.90L210.28 49.90L210.28 42.22L202.60 42.22L202.60 49.90M164.30 50L171.98 50L171.98 42.32L164.30 42.32L164.30 50M193.10 40.40L200.78 40.40L200.78 32.72L193.10 32.72L193.10 40.40M173.90 40.40L181.58 40.40L181.58 32.72L173.90 32.72L173.90 40.40M202.60 40.30L210.28 40.30L210.28 32.62L202.60 32.62L202.60 40.30M164.30 40.40L171.98 40.40L171.98 32.72L164.30 32.72L164.30 40.40M193.10 30.80L200.78 30.80L200.78 23.12L193.10 23.12L193.10 30.80M173.90 30.80L181.58 30.80L181.58 23.12L173.90 23.12L173.90 30.80M202.60 30.70L210.28 30.70L210.28 23.02L202.60 23.02L202.60 30.70M164.30 30.80L171.98 30.80L171.98 23.12L164.30 23.12L164.30 30.80M183.40 30.80L191.08 30.80L191.08 23.12L183.40 23.12L183.40 30.80M193.10 21.20L200.78 21.20L200.78 13.52L193.10 13.52L193.10 21.20M202.60 21.10L210.28 21.10L210.28 13.42L202.60 13.42L202.60 21.10M193.10 11.60L200.78 11.60L200.78 3.92L193.10 3.92L193.10 11.60M202.60 11.50L210.28 11.50L210.28 3.82L202.60 3.82L202.60 11.50M193.10 78.80L200.78 78.80L200.78 71.12L193.10 71.12L193.10 78.80M173.90 78.80L181.58 78.80L181.58 71.12L173.90 71.12L173.90 78.80M202.60 78.70L210.28 78.70L210.28 71.02L202.60 71.02L202.60 78.70M164.30 78.80L171.98 78.80L171.98 71.12L164.30 71.12L164.30 78.80M183.40 78.80L191.08 78.80L191.08 71.12L183.40 71.12L183.40 78.80Z"></path><path fill="#fb3f24" d="M250.79 69.20L258.47 69.20L258.47 61.52L250.79 61.52L250.79 69.20M231.59 69.20L239.27 69.20L239.27 61.52L231.59 61.52L231.59 69.20M260.30 69.10L267.98 69.10L267.98 61.42L260.30 61.42L260.30 69.10M221.99 69.20L229.67 69.20L229.67 61.52L221.99 61.52L221.99 69.20M250.79 59.60L258.47 59.60L258.47 51.92L250.79 51.92L250.79 59.60M231.59 59.60L239.27 59.60L239.27 51.92L231.59 51.92L231.59 59.60M260.30 59.50L267.98 59.50L267.98 51.82L260.30 51.82L260.30 59.50M221.99 59.60L229.67 59.60L229.67 51.92L221.99 51.92L221.99 59.60M250.79 50L258.47 50L258.47 42.32L250.79 42.32L250.79 50M231.59 50L239.27 50L239.27 42.32L231.59 42.32L231.59 50M260.30 49.90L267.98 49.90L267.98 42.22L260.30 42.22L260.30 49.90M221.99 50L229.67 50L229.67 42.32L221.99 42.32L221.99 50M250.79 40.40L258.47 40.40L258.47 32.72L250.79 32.72L250.79 40.40M231.59 40.40L239.27 40.40L239.27 32.72L231.59 32.72L231.59 40.40M260.30 40.30L267.98 40.30L267.98 32.62L260.30 32.62L260.30 40.30M221.99 40.40L229.67 40.40L229.67 32.72L221.99 32.72L221.99 40.40M250.79 30.80L258.47 30.80L258.47 23.12L250.79 23.12L250.79 30.80M231.59 30.80L239.27 30.80L239.27 23.12L231.59 23.12L231.59 30.80M260.30 30.70L267.98 30.70L267.98 23.02L260.30 23.02L260.30 30.70M221.99 30.80L229.67 30.80L229.67 23.12L221.99 23.12L221.99 30.80M241.10 30.80L248.78 30.80L248.78 23.12L241.10 23.12L241.10 30.80M250.79 78.80L258.47 78.80L258.47 71.12L250.79 71.12L250.79 78.80M231.59 78.80L239.27 78.80L239.27 71.12L231.59 71.12L231.59 78.80M260.30 78.70L267.98 78.70L267.98 71.02L260.30 71.02L260.30 78.70M221.99 78.80L229.67 78.80L229.67 71.12L221.99 71.12L221.99 78.80M241.10 78.80L248.78 78.80L248.78 71.12L241.10 71.12L241.10 78.80Z"></path><path fill="#3cc8f6" d="M308.30 69.20L315.98 69.20L315.98 61.52L308.30 61.52L308.30 69.20M289.10 69.20L296.78 69.20L296.78 61.52L289.10 61.52L289.10 69.20M317.80 69.10L325.48 69.10L325.48 61.42L317.80 61.42L317.80 69.10M327.50 69.10L335.18 69.10L335.18 61.42L327.50 61.42L327.50 69.10M337.19 69.20L344.87 69.20L344.87 61.52L337.19 61.52L337.19 69.20M279.50 69.20L287.18 69.20L287.18 61.52L279.50 61.52L279.50 69.20M298.60 69.20L306.28 69.20L306.28 61.52L298.60 61.52L298.60 69.20M308.30 59.60L315.98 59.60L315.98 51.92L308.30 51.92L308.30 59.60M289.10 59.60L296.78 59.60L296.78 51.92L289.10 51.92L289.10 59.60M327.50 59.50L335.18 59.50L335.18 51.82L327.50 51.82L327.50 59.50M337.19 59.60L344.87 59.60L344.87 51.92L337.19 51.92L337.19 59.60M279.50 59.60L287.18 59.60L287.18 51.92L279.50 51.92L279.50 59.60M308.30 50L315.98 50L315.98 42.32L308.30 42.32L308.30 50M289.10 50L296.78 50L296.78 42.32L289.10 42.32L289.10 50M327.50 49.90L335.18 49.90L335.18 42.22L327.50 42.22L327.50 49.90M337.19 50L344.87 50L344.87 42.32L337.19 42.32L337.19 50M279.50 50L287.18 50L287.18 42.32L279.50 42.32L279.50 50M308.30 40.40L315.98 40.40L315.98 32.72L308.30 32.72L308.30 40.40M289.10 40.40L296.78 40.40L296.78 32.72L289.10 32.72L289.10 40.40M327.50 40.30L335.18 40.30L335.18 32.62L327.50 32.62L327.50 40.30M337.19 40.40L344.87 40.40L344.87 32.72L337.19 32.72L337.19 40.40M279.50 40.40L287.18 40.40L287.18 32.72L279.50 32.72L279.50 40.40M289.10 30.80L296.78 30.80L296.78 23.12L289.10 23.12L289.10 30.80M327.50 30.70L335.18 30.70L335.18 23.02L327.50 23.02L327.50 30.70M337.19 30.80L344.87 30.80L344.87 23.12L337.19 23.12L337.19 30.80M279.50 30.80L287.18 30.80L287.18 23.12L279.50 23.12L279.50 30.80M289.10 78.80L296.78 78.80L296.78 71.12L289.10 71.12L289.10 78.80M317.80 78.70L325.48 78.70L325.48 71.02L317.80 71.02L317.80 78.70M327.50 78.70L335.18 78.70L335.18 71.02L327.50 71.02L327.50 78.70M298.60 78.80L306.28 78.80L306.28 71.12L298.60 71.12L298.60 78.80Z"></path><path fill="#67c5c4 " d="M365.99 50L373.67 50L373.67 42.32L365.99 42.32L365.99 50M356.39 50L364.07 50L364.07 42.32L356.39 42.32L356.39 50M375.50 50L383.18 50L383.18 42.32L375.50 42.32L375.50 50M365.99 40.40L373.67 40.40L373.67 32.72L365.99 32.72L365.99 40.40M356.39 40.40L364.07 40.40L364.07 32.72L356.39 32.72L356.39 40.40M365.99 30.80L373.67 30.80L373.67 23.12L365.99 23.12L365.99 30.80M356.39 30.80L364.07 30.80L364.07 23.12L356.39 23.12L356.39 30.80M375.50 30.80L383.18 30.80L383.18 23.12L375.50 23.12L375.50 30.80M365.99 78.80L373.67 78.80L373.67 71.12L365.99 71.12L365.99 78.80M356.39 78.80L364.07 78.80L364.07 71.12L356.39 71.12L356.39 78.80M375.50 78.80L383.18 78.80L383.18 71.12L375.50 71.12L375.50 78.80M385.10 69.10L392.78 69.10L392.78 61.42L385.10 61.42L385.10 69.10M394.79 69.10L402.47 69.10L402.47 61.42L394.79 61.42L394.79 69.10M385.10 59.50L392.78 59.50L392.78 51.82L385.10 51.82L385.10 59.50M394.79 59.50L402.47 59.50L402.47 51.82L394.79 51.82L394.79 59.50M385.10 49.90L392.78 49.90L392.78 42.22L385.10 42.22L385.10 49.90M394.79 49.90L402.47 49.90L402.47 42.22L394.79 42.22L394.79 49.90M385.10 30.70L392.78 30.70L392.78 23.02L385.10 23.02L385.10 30.70M394.79 30.70L402.47 30.70L402.47 23.02L394.79 23.02L394.79 30.70M385.10 78.70L392.78 78.70L392.78 71.02L385.10 71.02L385.10 78.70M394.79 78.70L402.47 78.70L402.47 71.02L394.79 71.02L394.79 78.70Z"></path><path fill="#67c5c4 " d="M442.70 50L450.38 50L450.38 42.32L442.70 42.32L442.70 50M423.50 50L431.18 50L431.18 42.32L423.50 42.32L423.50 50M452.20 50L459.88 50L459.88 42.32L452.20 42.32L452.20 50M461.90 50L469.58 50L469.58 42.32L461.90 42.32L461.90 50M413.90 50L421.58 50L421.58 42.32L413.90 42.32L413.90 50M433 50L440.68 50L440.68 42.32L433 42.32L433 50Z"></path><path fill="#6af72e" d="M509.80 69.20L517.48 69.20L517.48 61.52L509.80 61.52L509.80 69.20M490.60 69.20L498.28 69.20L498.28 61.52L490.60 61.52L490.60 69.20M519.30 69.10L526.98 69.10L526.98 61.42L519.30 61.42L519.30 69.10M481 69.20L488.68 69.20L488.68 61.52L481 61.52L481 69.20M509.80 59.60L517.48 59.60L517.48 51.92L509.80 51.92L509.80 59.60M490.60 59.60L498.28 59.60L498.28 51.92L490.60 51.92L490.60 59.60M519.30 59.50L526.98 59.50L526.98 51.82L519.30 51.82L519.30 59.50M481 59.60L488.68 59.60L488.68 51.92L481 51.92L481 59.60M509.80 50L517.48 50L517.48 42.32L509.80 42.32L509.80 50M490.60 50L498.28 50L498.28 42.32L490.60 42.32L490.60 50M519.30 49.90L526.98 49.90L526.98 42.22L519.30 42.22L519.30 49.90M481 50L488.68 50L488.68 42.32L481 42.32L481 50M509.80 40.40L517.48 40.40L517.48 32.72L509.80 32.72L509.80 40.40M490.60 40.40L498.28 40.40L498.28 32.72L490.60 32.72L490.60 40.40M519.30 40.30L526.98 40.30L526.98 32.62L519.30 32.62L519.30 40.30M481 40.40L488.68 40.40L488.68 32.72L481 32.72L481 40.40M509.80 30.80L517.48 30.80L517.48 23.12L509.80 23.12L509.80 30.80M490.60 30.80L498.28 30.80L498.28 23.12L490.60 23.12L490.60 30.80M519.30 30.70L526.98 30.70L526.98 23.02L519.30 23.02L519.30 30.70M481 30.80L488.68 30.80L488.68 23.12L481 23.12L481 30.80M500.10 30.80L507.78 30.80L507.78 23.12L500.10 23.12L500.10 30.80M509.80 78.80L517.48 78.80L517.48 71.12L509.80 71.12L509.80 78.80M490.60 78.80L498.28 78.80L498.28 71.12L490.60 71.12L490.60 78.80M519.30 78.70L526.98 78.70L526.98 71.02L519.30 71.02L519.30 78.70M481 78.80L488.68 78.80L488.68 71.12L481 71.12L481 78.80M500.10 78.80L507.78 78.80L507.78 71.12L500.10 71.12L500.10 78.80M490.60 88.40L498.28 88.40L498.28 80.72L490.60 80.72L490.60 88.40M481 88.40L488.68 88.40L488.68 80.72L481 80.72L481 88.40M490.60 98L498.28 98L498.28 90.32L490.60 90.32L490.60 98M481 98L488.68 98L488.68 90.32L481 90.32L481 98M490.60 107.60L498.28 107.60L498.28 99.92L490.60 99.92L490.60 107.60M481 107.60L488.68 107.60L488.68 99.92L481 99.92L481 107.60Z"></path><path fill="#6af72e" d="M547.53 69.20L555.21 69.20L555.21 61.52L547.53 61.52L547.53 69.20M537.93 69.20L545.61 69.20L545.61 61.52L537.93 61.52L537.93 69.20M547.53 59.60L555.21 59.60L555.21 51.92L547.53 51.92L547.53 59.60M537.93 59.60L545.61 59.60L545.61 51.92L537.93 51.92L537.93 59.60M547.53 50L555.21 50L555.21 42.32L547.53 42.32L547.53 50M537.93 50L545.61 50L545.61 42.32L537.93 42.32L537.93 50M557.51 30.70L565.19 30.70L565.19 23.02L557.51 23.02L557.51 30.70M547.53 40.40L555.21 40.40L555.21 32.72L547.53 32.72L547.53 40.40M537.93 40.40L545.61 40.40L545.61 32.72L537.93 32.72L537.93 40.40M566.73 30.80L574.41 30.80L574.41 23.12L566.73 23.12L566.73 30.80M547.53 30.80L555.21 30.80L555.21 23.12L547.53 23.12L547.53 30.80M547.53 78.80L555.21 78.80L555.21 71.12L547.53 71.12L547.53 78.80M537.93 78.80L545.61 78.80L545.61 71.12L537.93 71.12L537.93 78.80Z"></path><path fill="#6af72e" d="M614.73 69.20L622.41 69.20L622.41 61.52L614.73 61.52L614.73 69.20M595.53 69.20L603.21 69.20L603.21 61.52L595.53 61.52L595.53 69.20M624.23 69.10L631.91 69.10L631.91 61.42L624.23 61.42L624.23 69.10M585.93 69.20L593.61 69.20L593.61 61.52L585.93 61.52L585.93 69.20M614.73 59.60L622.41 59.60L622.41 51.92L614.73 51.92L614.73 59.60M595.53 59.60L603.21 59.60L603.21 51.92L595.53 51.92L595.53 59.60M624.23 59.50L631.91 59.50L631.91 51.82L624.23 51.82L624.23 59.50M585.93 59.60L593.61 59.60L593.61 51.92L585.93 51.92L585.93 59.60M614.73 50L622.41 50L622.41 42.32L614.73 42.32L614.73 50M595.53 50L603.21 50L603.21 42.32L595.53 42.32L595.53 50M624.23 49.90L631.91 49.90L631.91 42.22L624.23 42.22L624.23 49.90M585.93 50L593.61 50L593.61 42.32L585.93 42.32L585.93 50M614.73 40.40L622.41 40.40L622.41 32.72L614.73 32.72L614.73 40.40M595.53 40.40L603.21 40.40L603.21 32.72L595.53 32.72L595.53 40.40M624.23 40.30L631.91 40.30L631.91 32.62L624.23 32.62L624.23 40.30M585.93 40.40L593.61 40.40L593.61 32.72L585.93 32.72L585.93 40.40M614.73 30.80L622.41 30.80L622.41 23.12L614.73 23.12L614.73 30.80M595.53 30.80L603.21 30.80L603.21 23.12L595.53 23.12L595.53 30.80M624.23 30.70L631.91 30.70L631.91 23.02L624.23 23.02L624.23 30.70M585.93 30.80L593.61 30.80L593.61 23.12L585.93 23.12L585.93 30.80M605.03 30.80L612.71 30.80L612.71 23.12L605.03 23.12L605.03 30.80M614.73 78.80L622.41 78.80L622.41 71.12L614.73 71.12L614.73 78.80M595.53 78.80L603.21 78.80L603.21 71.12L595.53 71.12L595.53 78.80M624.23 78.70L631.91 78.70L631.91 71.02L624.23 71.02L624.23 78.70M585.93 78.80L593.61 78.80L593.61 71.12L585.93 71.12L585.93 78.80M605.03 78.80L612.71 78.80L612.71 71.12L605.03 71.12L605.03 78.80Z"></path><path fill="#6af72e" d="M672.23 50L679.91 50L679.91 42.32L672.23 42.32L672.23 50M653.03 50L660.71 50L660.71 42.32L653.03 42.32L653.03 50M681.74 50L689.42 50L689.42 42.32L681.74 42.32L681.74 50M691.43 50L699.11 50L699.11 42.32L691.43 42.32L691.43 50M643.43 50L651.11 50L651.11 42.32L643.43 42.32L643.43 50M662.54 50L670.22 50L670.22 42.32L662.54 42.32L662.54 50Z"></path><path fill="#6af72e" d="M720.14 69.20L727.82 69.20L727.82 61.52L720.14 61.52L720.14 69.20M710.44 69.20L718.12 69.20L718.12 61.52L710.44 61.52L710.44 69.20M720.14 59.60L727.82 59.60L727.82 51.92L720.14 51.92L720.14 59.60M710.44 59.60L718.12 59.60L718.12 51.92L710.44 51.92L710.44 59.60M720.14 50L727.82 50L727.82 42.32L720.14 42.32L720.14 50M710.44 50L718.12 50L718.12 42.32L710.44 42.32L710.44 50M720.14 40.40L727.82 40.40L727.82 32.72L720.14 32.72L720.14 40.40M710.44 40.40L718.12 40.40L718.12 32.72L710.44 32.72L710.44 40.40M720.14 30.80L727.82 30.80L727.82 23.12L720.14 23.12L720.14 30.80M710.44 30.80L718.12 30.80L718.12 23.12L710.44 23.12L710.44 30.80M720.14 11.60L727.82 11.60L727.82 3.92L720.14 3.92L720.14 11.60M710.44 11.60L718.12 11.60L718.12 3.92L710.44 3.92L710.44 11.60M720.14 78.80L727.82 78.80L727.82 71.12L720.14 71.12L720.14 78.80M710.44 78.80L718.12 78.80L718.12 71.12L710.44 71.12L710.44 78.80M720.14 88.40L727.82 88.40L727.82 80.72L720.14 80.72L720.14 88.40M710.44 88.40L718.12 88.40L718.12 80.72L710.44 80.72L710.44 88.40M720.14 98L727.82 98L727.82 90.32L720.14 90.32L720.14 98M710.44 98L718.12 98L718.12 90.32L710.44 90.32L710.44 98M720.14 107.60L727.82 107.60L727.82 99.92L720.14 99.92L720.14 107.60M700.94 107.60L708.62 107.60L708.62 99.92L700.94 99.92L700.94 107.60M691.34 107.60L699.02 107.60L699.02 99.92L691.34 99.92L691.34 107.60M710.44 107.60L718.12 107.60L718.12 99.92L710.44 99.92L710.44 107.60Z"></path></svg>